<svg xmlns="http://www.w3.org/2000/svg" viewBox="0 0 306.85343 403.37538">
  <g id="Layer_2" data-name="Layer 2">
    <g id="Logo">
      <g id="logo-3">
        <g>
          <path d="M58.90413,39.98192c-.60031.48449-.839.787,0,0Z" fill="#fff"/>
          <path d="M231.49048,385.375c-.19668.14026-.29418.20972-.48753.34766a12.38144,12.38144,0,0,1-.725,1.1239Z" fill="#fff"/>
          <path d="M137.02931,395.52611c-.20234-.1056-.34169-.17847-.52966-.27662C136.50018,395.37962,136.34535,395.44554,137.02931,395.52611Z" fill="#fff"/>
          <path d="M305.79857,188.85911a7.47289,7.47289,0,0,0-.17626-1.57666C305.68845,187.74131,305.74985,188.218,305.79857,188.85911Z" fill="#fff"/>
          <path d="M.33942,197.48167l-.00949-.406c-.04654.32678-.082.66149-.14075.99792Z" fill="#fff"/>
          <path d="M.03476,195.60728c.18851-2.05066.27173.57056.29517,1.46839a39.23967,39.23967,0,0,0,.30548-6.81873C.32605,190.26158.28488,194.59593.03476,195.60728Z" fill="#fff"/>
          <path d="M184.66206,378.5576l-.8717.35266C184.15466,378.7827,184.42085,378.66819,184.66206,378.5576Z" fill="#fff"/>
          <path d="M290.90617,198.23961l-.09531-1.33265A7.05641,7.05641,0,0,0,290.90617,198.23961Z" fill="#fff"/>
          <path d="M136.13014,385.40513l-.53184.494C136.07469,385.69322,136.17938,385.53721,136.13014,385.40513Z" fill="#fff"/>
          <path d="M230.278,386.84654l-.48049.56958A5.32982,5.32982,0,0,0,230.278,386.84654Z" fill="#fff"/>
          <path d="M70.2534,339.23375c.103-.114.08474-.34485.03231-.59375l-.14116-.20264Z" fill="#fff"/>
          <path d="M210.00568,47.25474a.56917.56917,0,0,0-.0821-.28869c-.51379-.24182-1.09034-.379-1.62966-.57178C209.08824,46.79356,209.64137,47.07164,210.00568,47.25474Z" fill="#fff"/>
          <path d="M31.39145,228.27256c-.06686-.09716-.14725-.3706-.21069-.3833.03393,1.012.133,2.85169.41076,5.275.31916,2.41833.74707,5.42859,1.24329,8.8042l.65915.31384-1.13822-6.99048c-.17709-1.16736-.40188-2.3291-.53946-3.50183Z" fill="#fff"/>
          <path d="M67.42293,109.79649l-3.3385,4.91235c-1.10265,1.64881-2.08344,3.36109-3.13721,5.04639q.75025-1.61773,1.47594-3.18237.36678-.78113.72764-1.54956.39636-.75221.78638-1.49231,1.567-2.95844,3.0385-5.7367c1.01394-1.83911,2.09781-3.57251,3.1026-5.28589,1.0113-1.71032,1.99788-3.37292,3.06782-4.9375q1.56478-2.36845,3.05947-4.63073c.996-1.51148,2.08267-2.92664,3.09242-4.35425,1.0347-1.41248,2.00867-2.82935,3.05232-4.17981q1.57077-2.02185,3.111-4.00452c2.01326-2.6759,4.20294-5.18567,6.30115-7.78637,1.04158-1.30555,2.17173-2.56055,3.27165-3.85425q1.42828-1.66974,2.88714-3.37537l.41414-.33093.97278-.74219q1.01262-.74121,2.04233-1.49512c1.39392-1.00036,2.85-1.99108,4.34915-2.99462,3.00861-1.99952,6.25141-3.9585,9.73842-5.95142-.49162.33826-.964.71228-1.4424,1.07166a34.09189,34.09189,0,0,0,3.37566-1.99854c.72334-.46594,1.5932-1.01636,2.73114-1.62817,1.13661-.61316,2.49675-1.39649,4.257-2.17237.87867-.39441,1.84086-.82629,2.89808-1.3009,1.07991-.413,2.25682-.86316,3.54255-1.35486,1.28031-.514,2.7142-.91357,4.25409-1.40723,1.53588-.51416,3.22673-.9248,5.05078-1.37036A90.81229,90.81229,0,0,1,152.87659,41.603a84.21187,84.21187,0,0,1,16.52569.35388l-.00757.12073a21.07186,21.07186,0,0,1,5.04328.56579l-4.17218-.8208c-1.4036-.22509-2.82564-.34753-4.2475-.53271,1.28264-.033,2.52921-.0874,3.78787-.14917,1.2526.03418,2.51206.0686,3.82441.10449.65957.02393,1.33244.04834,2.02442.07337.688.05737,1.3872.17089,2.11617.2655,1.44948.22815,3.02594.37964,4.69643.7854,1.3784.51855,1.79412.88843,1.8806,1.11291a78.3969,78.3969,0,0,1,15.70841,5.867l4.09981,3.24914c.58151.27747,1.08611.45642,1.51295.63562.42088.19019.79066.33033,1.14327.453.70534.24536,1.34164.42114,2.184.78894a21.45075,21.45075,0,0,1,3.41644,1.94665c1.44124,1.14551,3.34132,2.77991,5.915,5.18347-.833-1.0625-.897-1.34228-.51582-1.19958a5.126,5.126,0,0,1,.85075.49646c.35435.25549.74536.61169,1.16694.97412,1.67378,1.46545,3.63682,3.29626,3.201,2.47729.41127.61756,1.4942,1.8501,2.24485,2.96277,1.45858,1.56116,3.23955,3.46741,5.13319,5.49427l.71651.76611.67373.82568q.67871.82837,1.3649,1.6659l2.7379,3.31079q.679.8117,1.3376,1.59936.612.82581,1.19629,1.61438c.78282,1.04712,1.52075,2.0343,2.19056,2.9303,1.35469,1.78333,2.46893,3.18384,3.16446,3.94177,0,0-1.07169-1.84387-2.75159-4.73425-.8553-1.43713-1.79779-3.19458-2.95384-5.0249-1.20037-1.80347-2.50477-3.76331-3.84915-5.78308-1.28651-2.08448-2.88907-3.98572-4.3638-5.96265-.74745-.98267-1.4883-1.95667-2.21378-2.91052-.72262-.96045-1.54215-1.787-2.2732-2.65271-1.49509-1.71082-2.88475-3.301-4.09247-4.683-1.294-1.29113-2.388-2.406-3.19193-3.26013,4.7637,3.99365,5.22343,4.70947,4.5868,3.861-.17158-.19983-.41926-.4884-.707-.8236-.3036-.31775-.66877-.65821-1.02849-1.01514-.72359-.70862-1.46177-1.4408-1.87817-1.90515l-.82263-.304c-2.756-2.53637-4.21712-3.70776-5.23037-4.71618a29.859,29.859,0,0,0-3.17092-2.87915c-.031.04907.0256.17346.0733.2937l.44843.19165c.22417.30932.00312.26416-.36633.097-.016.19458-.32672.036-2.09078-.99l.379.12952c-1.38861-.73328-3.24034-1.7948-5.00006-2.82715-1.7956-.96118-3.57046-1.75476-4.61947-2.2937l.205-.57019c-2.712-.76379-11.27327-4.645-20.8062-6.735-1.17541-.33752-2.38591-.48169-3.58008-.70031-1.19929-.20557-2.39-.40967-3.5596-.61023-2.35258-.29-4.63975-.46717-6.74585-.67749-2.113-.04212-4.03807-.08057-5.6735-.11316-1.63936.00085-2.981.151-3.936.22546-.9669.00586-1.96367.0343-2.98234.1-1.01078.11743-2.04522.26013-3.09919.42151-1.052.17053-2.132.32031-3.21255.55383q-1.61228.38672-3.27526.78552c-2.22564.48926-4.43782,1.24317-6.71278,1.87964-2.25386.705-4.53633,1.4187-6.8257,2.13477-1.80049.639-3.26353,1.15832-4.45978,1.58288-1.18484.45276-2.10746.80054-2.843,1.05652a17.82112,17.82112,0,0,1-2.67029.77161c-.978.17553-1.11458-.11377-4.71956,1.31323-8.77577,4.04724,2.05763-.25928-1.373,1.53442-3.56106,1.46509-7.03675,3.13709-10.48535,4.89551,5.7446-3.50256,2.43315-1.94727,1.23894-1.52686-2.17737,1.2555-4.6544,2.72266-7.16779,4.29554-1.25216.79394-2.51527,1.61523-3.75109,2.46118l-.92351.64709q-.48216.34718-.95932.69056a9.222,9.222,0,0,0-1.19789.97937q-.45289.50372-.89809.99877c-1.85152,2.04822-3.53361,3.96265-4.81825,5.55677A15.42836,15.42836,0,0,0,81.08676,66.933c-1.11571,1.24621-2.0925,2.3374-2.9552,3.301-.86537.96253-1.57968,1.83093-2.23579,2.57275-1.30037,1.49415-2.26729,2.56995-3.07657,3.46595a52.519,52.519,0,0,0-4.24477,5.24646c1.30483-1.44629,3.665-4.46717,3.912-4.3208-3.579,4.04382-1.40171,2.154-.023.44152-1.09344,1.73792-3.2915,4.68689-5.94128,8.20582-1.28408,1.79321-2.673,3.73266-4.09951,5.72485-.732.98511-1.43048,2.01343-2.1085,3.05871-.68819,1.03968-1.37734,2.08069-2.05942,3.11109-.681,1.03332-1.35492,2.056-2.01382,3.05578-.61258,1.03016-1.21122,2.03675-1.78846,3.00733-1.14791,1.947-2.19925,3.76013-3.08538,5.34119-1.6276,3.241-2.63791,5.52612-2.52655,6.05737l-.21827-.10254c.02948,1.07544.59571,1.01684.90317,1.36987a1.22805,1.22805,0,0,1,.17142,1.02393,21.342,21.342,0,0,1-.73779,2.801l-1.88565,3.34119c-.59012,1.8313-1.2811,3.618-1.78281,5.47546-1.6117,3.50721-1.21262,1.63807-1.32486,1.59363-.67676,2.25147-1.55887,4.67224-2.40039,7.261-.78192,2.60852-1.64389,5.34509-2.541,8.13879-1.57885,5.64319-3.25378,11.541-4.26266,17.141l2.43185-5.63488,2.72153-5.48975c-.35931,1.13171-.75479,2.37744-1.17285,3.69434-.20462.66027-.43521,1.33447-.63242,2.02978-.18033.69946-.36392,1.41162-.54937,2.13086-.72541,2.88208-1.53229,5.88293-2.13834,8.6814-1.01529,5.626-1.81717,10.35095-1.4104,11.34277l-1.34949,5.62683c-.19351,1.1875-.37112,2.27771-.53445,3.28L31.91,190.35045l-.12118,1.32348c-.14243,1.68592-.225,3.06128-.26373,4.19751a24.41819,24.41819,0,0,0,.16427,4.54175c.27033,1.90771.77878,2.366.602,6.17639l-.39175,4.8114c-.151,1.60779-.15439,3.213-.23822,4.82459-.07675-1.59461-.2323-3.18592-.24359-4.783l-.09061-4.7887c-.07678,2.39917-.14209,4.43885-.20065,6.2688-.00733,1.83179-.0138,3.45349-.02,5.01514-.02146,1.56555-.04206,3.0708-.06388,4.66589.03162,1.595.06507,3.27966.10324,5.20423.00974-.001.02546.08227.03489.08129a3.02447,3.02447,0,0,1,.04943-.95275l.16126,1.33605a18.9833,18.9833,0,0,1,1.04422,4.28382c.45856,2.20447.95169,5.10547,1.4176,8.45495.32132,2.38.811,4.60071,1.24207,6.85364l.685,3.41016c.26969,1.14722.5452,2.31921.83094,3.53467,1.10986,4.87219,2.37787,10.43872,4.08575,17.93615l2.09632,3.35437.71377,2.78992.82022,2.759,1.64588,5.52759-.74878.28052c-.91455-2.68018-2.15506-5.9093-3.34964-9.536-1.14118-3.64356-2.50171-7.60242-3.58011-11.749a237.65609,237.65609,0,0,1-5.45987-24.20386l-.39734-.19654c1.458,8.53345,3.8436,18.08558,5.35834,23.58936a50.45618,50.45618,0,0,1,.79657,5.34241c.16543,1.49988-.04111,2.07861-1.03772-.34156.74753,1.64881,1.55368,3.275,2.32583,4.90479.55222,1.72314,1.03321,3.35107,1.55436,4.86279.53939,1.50586,1.04577,2.91931,1.52389,4.254.47794,1.3346.9277,2.59046,1.35407,3.781.46792,1.17529.91021,2.28613,1.33218,3.34594.84976,2.11744,1.61761,4.03077,2.34634,5.84656.78324,1.79431,1.52445,3.49219,2.26966,5.19922a241.455,241.455,0,0,0,13.65136,27.0011c-.37655-.8042-.68936-1.64441-1.03563-2.46289,3.36548,5.00329,6.91889,9.83142,7.409,11.54529,1.33847,1.85229,2.59941,3.77234,4.00032,5.58947q2.08513,2.73945,4.15251,5.45569c2.88049,3.51734,5.67184,7.01428,8.56422,10.17993q1.06145,1.20777,2.09676,2.38562c.69864.77771,1.42888,1.50879,2.12352,2.25061,1.40774,1.4668,2.73474,2.9242,4.05929,4.27576,2.727,2.62622,5.10332,5.16846,7.36477,7.20374l2.65611.91345c1.48546,1.2771,3.27344,2.99158,4.96277,4.44006a21.44048,21.44048,0,0,0,2.41179,1.8534,3.92163,3.92163,0,0,0,2.05578.70605L118.4,385.98765c.61468.34192,1.2113.70887,1.83993,1.02869l1.89258.94665a61.38311,61.38311,0,0,0,6.35932,3.27369c1.03636.47338,2.08662.96887,3.21093,1.5448.56025.29272,1.14295.59716,1.75731.91821.62618.30017,1.27989.626,1.96979.9845l-.0002.00036.03061.01526c.33849.17908.69478.36743,1.0394.54968.011-.02661-.01117-.0625-.03323-.09851,1.40487.63623,2.46405,1.09949,3.26438,1.43506.8155.30249,1.37682.46765,1.75817.57422.76579.20654.83768.12341.9615.06238.12375-.06128.29918-.10034,1.26787.19055.97778.26917,2.697.99622,6.112,1.97937,4.2468,1.84143,5.15305.11072,11.8619,1.4812l3.36715,1.0719c1.1341.33106,2.263.77173,3.42588,1.00464a50.83639,50.83639,0,0,0,14.50964-.19775c1.09486-.19031,2.234-.38831,3.46834-.60279.61557-.10547,1.25488-.215,1.92434-.32971.66092-.15649,1.3516-.32007,2.07837-.49219,1.45208-.33423,3.04824-.70178,4.83947-1.11413,1.762-.50586,3.71579-1.06678,5.91172-1.69715,2.12549-.53723,3.95547-1.08386,5.48249-1.40918.75866-.17492,1.4415-.29834,2.01824-.409a11.33,11.33,0,0,1,1.42019-.24781c1.49437-.1477,1.38073.53528-1.16708,2.15906,3.52025-2.16675,4.24565-2.74939,5.34554-3.35657,1.11221-.57116,2.462-1.39892,7.02916-4.11975,1.645-.40112.77724.32263-1.11835,1.80579a31.25653,31.25653,0,0,0,4.45663-2.35962,15.0498,15.0498,0,0,0,1.909-1.38367c.44855-.386.8281-.74341,1.468-1.24524a34.569,34.569,0,0,1,2.942-2.2279c.56779-.98474,1.10509-2.1228,1.719-3.17822a9.60953,9.60953,0,0,1,2.093-2.83887l-2.278,1.42529c5.5264-4.83044,11.20659-10.29565,17.28942-16.11536l.1407.56336c1.94525-2.27429,3.93277-4.50977,5.71086-6.90161l.83357-.04273c1.33052-1.66931,2.67625-3.32666,3.88864-5.07531,1.22949-1.736,2.52347-3.42957,3.69457-5.2-.36692.45276-.7427.89942-1.143,1.32959.86294-1.22338,2.55221-3.93957,4.51656-6.8634.93156-1.49133,1.90625-3.05163,2.83341-4.53589.93009-1.48169,1.869-2.85632,2.59442-4.04883l.19755.34913q1.618-2.48419,3.08828-4.93189c1.00574-1.62427,1.81916-3.31348,2.68932-4.96435,1.75539-3.297,3.17355-6.69739,4.63732-10.16272,2.78433-6.98877,5.38346-14.38831,8.11833-23.13587l-.091,2.50952c1.31224-2.86474,1.19111-3.359,1.074-4.0028-.12379-.64759-.19-1.43006.996-4.95423l.9287-.11267c.79628-6.59985,2.48774-8.10437,4.04-12.40112l-1.61415,1.77905,1.15354-4.09546,1.02238-4.12732a42.41618,42.41618,0,0,1,1.40921-4.64026c.33582-.90869.58186-1.25158.7797-1.26135.38523-.022.58713,1.29346.7166,2.02417.13143-2.15662.20011-4.31738.30032-6.46606l1.2044-1.0586a16.1614,16.1614,0,0,1,.4235-5.12536,42.47053,42.47053,0,0,0,1.104-7.68518c.45063-.62342.42637,1.46814.90559-1.286l.07678-6.80371c.01953-2.26306-.0776-4.53064-.11239-6.78784-.03187,2.7168.01854,5.44605-.12586,8.16468l-1.33277-1.13489c-.31505-8.50293,1.17049-11.38147,1.02811-17.43628l.22767,4.17187c.17411-9.8507.68067-10.34973,1.11225-15.91455-.29781,1.72571-.74193,4.34937-.86755.36414-.04881-2.92273.57587-1.58154.68939-4.35169-.48953-.32946-.89114-2.25671-1.12721-4.89575-.12909-1.3197-.16993-2.81872-.245-4.38721-.07677-1.56848-.10471-3.20788-.07048-4.81115.14174.07153.28117.20093.38975.61352a22.16394,22.16394,0,0,1-.44883-5.30517c.40466.53222.77728,1.068,1.16763,1.605-.40286-1.80811-.95891-3.60291-1.43205-5.3949a51.01961,51.01961,0,0,0-.52811-5.77234c-.26929-1.7102-.42483-2.91223-.03583-2.71448l.45771,2.04248q-1.33579-13.795-3.95653-27.463l.76221-.554c-.88283-1.22461-1.60611-4.94275-2.26927-8.21485-.74323-3.254-1.46509-6.0459-2.05534-5.41382a30.89831,30.89831,0,0,0-1.16612-5.27893c-.60973-2.05078-1.32725-4.26513-1.94379-6.23645-1.31828-3.91589-2.2969-6.85241-.992-5.66333-1.39747-4.38257-3.06152-8.12-4.53646-11.69494-.82876-1.75208-1.636-3.45874-2.43916-5.15662l-1.21514-2.53528q-.65368-1.2486-1.3134-2.50879c-.87514-1.68383-1.76445-3.39489-2.68669-5.16931-.97954-1.74719-1.98082-3.56213-3.01656-5.48584-.99785-1.94287-2.21584-3.90039-3.40121-6.04968-.6135-1.0636-1.19242-2.191-1.8743-3.312q-1.00724-1.69172-2.08445-3.50122a34.8951,34.8951,0,0,0-1.58767-3.28711c-.6995-1.2168-1.52262-2.56677-2.44123-4.01709q-.69722-1.08325-1.44592-2.24634c-.52348-.75793-1.089-1.52246-1.66069-2.31067-1.1631-1.56274-2.33614-3.23413-3.65972-4.85925a160.35733,160.35733,0,0,0-17.09489-18.15711A133.03094,133.03094,0,0,0,210.74782,11.855c-.67961-.31579-1.35049-.64856-2.03827-.9497l-2.09358-.85059q-2.09632-.84778-4.21522-1.70471-2.16979-.73737-4.37734-1.48731-1.10448-.3728-2.22144-.74975-1.139-.314-2.29253-.63208a111.13709,111.13709,0,0,0-20.09825-3.82788c-8.63166-2.04578-19.80928-2.12757-30.84336-.60425-11.07262,1.46228-21.9363,4.48205-31.03072,7.0365-1.53975.82849-3.1012,1.57385-4.59683,2.46606-1.50249.44165-3.08908.96558-4.74575,1.55506-.8236.30529-1.68478.582-2.52526.95507q-1.25929.56489-2.57056,1.153c-1.73077.81921-3.56642,1.59424-5.35516,2.58032q-2.68014,1.4828-5.4919,3.03845c-7.36835,4.34876-14.83248,9.63513-22.00672,14.76953-3.007,3.11975-4.6121,4.69422-5.3408,5.37928.62-.5011,1.62506-1.19483,2.24071-1.07532-.97591.77722-2.21981,1.74145-3.394,2.87964-1.17447,1.139-2.39927,2.3269-3.49634,3.39087-2.24546,2.08007-3.87894,3.76049-4.00391,3.15527l.77527-1.01709c-.1142-.61719-2.5798,2.30017-5.54153,5.81567C44.054,54.92955,42.588,56.9481,41.16507,58.713c-.71823.87732-1.4006,1.71082-2.01505,2.46143a24.66111,24.66111,0,0,1-1.64236,1.92651c.88257-.62133,1.74527-1.249,2.63434-1.84985l-5.60861,7.5824L35.82391,66.655A259.52813,259.52813,0,0,0,22.963,90.468q-1.30334,2.71471-2.55145,5.31433-1.138,2.65045-2.23791,5.21216c-.72315,1.71509-1.5152,3.37964-2.16953,5.07715q-.97083,2.5512-1.92923,5.06982c-.62515,1.68738-1.31638,3.35169-1.88345,5.05847q-.82434,2.56916-1.65677,5.16333c-.54187,1.73706-1.123,3.48218-1.6304,5.27161q-.68034,2.70355-1.382,5.49231c-.45084,1.86645-.93195,3.76465-1.351,5.7207q-.52149,2.95258-1.069,6.05225c-.3312,2.074-.73977,4.194-.99,6.40027q-.35769,3.312-.68469,6.83276c-.20236-2.55908-.32889-.697-.57037,1.84241-.29642,2.53406-.44983,5.761-1.11835,5.93249A43.95212,43.95212,0,0,0,.13153,178.17332c.03977,2.10364.14676,4.15454.24082,6.1637.08923,2.00793.17672,3.97656.26306,5.91992.06247.00208.13373.09839.22256.545l-.21243,6.7743c-.07453,2.25915-.15628,4.52-.12351,6.76489-1.71054-8.05127,1.45719,9.7052-.00488,2.31567q-.0547,3.30176-.11139,6.72437c.01489,2.28271.07074,4.605.11884,6.96142.04541,4.71277.38431,9.56482.68066,14.52173a297.44632,297.44632,0,0,0,3.85645,30.672,241.61115,241.61115,0,0,0,7.8475,31.21728A181.80878,181.80878,0,0,0,25.42639,326.2772l-.51971-1.81811c.63583,1.16992,1.291,2.37536,1.95834,3.60327.73728,1.19189,1.488,2.40552,2.24411,3.62781,1.46634,2.47021,3.22443,4.818,4.82913,7.16015.799,1.17408,1.70774,2.25245,2.521,3.35157.8443,1.07751,1.59869,2.17761,2.4292,3.15991.81711.99219,1.59375,1.95276,2.31775,2.87317q.53818.69507,1.0451,1.34961.5252.6394,1.01456,1.2351A44.95044,44.95044,0,0,0,52.4249,359.24c1.60623,1.09009,3.04605,2.11975,4.33848,2.87195,1.28383.76331,2.31276,1.38342,2.95543,1.8429.934.61352,1.88016,1.18274,2.78987,1.74365.9047.56787,1.7659,1.13721,2.571,1.6914,1.62214,1.08814,3.084,2.015,4.16064,2.81922,1.07526.8081,1.84605,1.35168,2.11356,1.6206.26893.26661.04571.23438-.79879-.22912a65.9269,65.9269,0,0,0,6.53588,2.92334c1.12208.42517,2.24579.86719,3.4,1.2771,1.16346.38025,2.34527.76648,3.554,1.16137,4.84851,1.514,10.11421,3.05384,16.42241,4.82276a12.3504,12.3504,0,0,0,2.69022.90771,41.2526,41.2526,0,0,0,4.56955.913c.88183.12951,1.81155.26611,2.77528.40771.96533.12329,1.96881.20508,2.99.307,2.04156.223,4.16859.32556,6.2601.43127,2.09086.12659,4.1504.104,6.06166.17041,1.91159.00635,3.67709-.00647,5.18785.02539,3.01771-.02685,5.02144.07422,5.12817.45752l.13835-.13427a113.58681,113.58681,0,0,0,24.41623-2.021c8.06331-1.43384,16.14243-3.33362,24.83021-5.141a5.88752,5.88752,0,0,1-.85287.44873,224.09564,224.09564,0,0,0,32.2791-16.09754c-3.792-.14794-7.48911-.50378-11.17228-.92419a230.333,230.333,0,0,1-29.663,4.77893,193.01788,193.01788,0,0,1-39.25508,5.86267A129.18436,129.18436,0,0,1,98.087,368.22374a98.34571,98.34571,0,0,1-14.27617-5.63782c-2.31087-1.07459-4.50887-2.3501-6.72464-3.5802-2.1422-1.35535-4.31934-2.64612-6.35-4.15491-2.10016-1.40478-4.02866-3.04651-6.00778-4.60376-1.88355-1.68359-3.814-3.302-5.56717-5.12549-1.84055-1.723-3.47966-3.66052-5.189-5.514-.82278-.9596-1.6001-1.96351-2.40353-2.93946l-1.1969-1.47119-1.1221-1.53845a109.65733,109.65733,0,0,1-10.274-15.53809,139.48168,139.48168,0,0,1-8.03256-17.12561,207.64916,207.64916,0,0,1-10.36676-37.07519A314.8376,314.8376,0,0,1,16.009,225.04539l-.441-9.84411c-.15493-3.281-.13415-6.5802-.211-9.86988-.10038-3.302-.0091-6.56262.04388-9.83154l.08047-4.90332c.01838-.81677.015-1.6355.051-2.45081l.14328-2.44226c-.13126-3.73657-.36166-7.50012-.41437-11.25525,2.30487-15.26977,5.11759-32.5393,10.13407-49.49524l.93164-3.18225.468-1.59253.54764-1.563,2.19052-6.25464.548-1.56238.62466-1.52734,1.26178-3.04383q.63227-1.51922,1.26257-3.03369l.63166-1.51208.71255-1.46778q1.43454-2.9262,2.85452-5.82287c.4552-.9751.9842-1.9043,1.51953-2.8252q.79556-1.385,1.5853-2.75989c2.02078-3.71911,4.45572-7.0885,6.724-10.43322l-.46884-1.11853a62.52785,62.52785,0,0,1,4.83966-6.34583c.86978-.93445,1.32327-1.10022,2.08121-1.93579a142.31892,142.31892,0,0,1,21.9602-22.856,133.7576,133.7576,0,0,1,26.60527-17.20593,127.07267,127.07267,0,0,1,61.065-13.06409l3.89316.17945,3.86647.39c2.60269.18714,5.0798.69324,7.599,1.07166,1.25948.17871,2.48543.53735,3.72864.79419,1.23315.30493,2.49036.50415,3.702.89038,2.43.73779,4.89233,1.35,7.25517,2.27978a106.14923,106.14923,0,0,1,26.7105,14.0315c16.36438,11.71142,29.44733,27.20324,39.21367,43.74633.83928,1.66053,2.12435,4.15735,3.71064,6.98975.73921,1.44934,1.52934,2.99841,2.3421,4.59192.409.79492.8236,1.60107,1.24037,2.41125.38493.82764.77182,1.65955,1.1574,2.48865.76565,1.66052,1.55207,3.29614,2.25614,4.88855.66144,1.61255,1.29441,3.15576,1.87527,4.57178a53.25211,53.25211,0,0,1,2.29776,6.651,185.65988,185.65988,0,0,1,11.6924,36.70483,242.88044,242.88044,0,0,1,4.8449,38.50159l-.15726-.95569.395,5.981c.10917,1.9956.141,3.99621.21616,5.995-.07316.50977-.19052.57312-.27348.19056a154.484,154.484,0,0,1-.364,24.5664c-.76417,9.0697-2.27327,18.421-3.73518,26.54541l.03652-.9707c-3.92494,23.73144-10.6701,46.58948-20.81833,67.44263a180.49989,180.49989,0,0,1-17.81205,29.41137c-.818,1.16822-1.73341,2.24829-2.62162,3.35242l-2.67125,3.30579-2.82177,3.15368c-.93983,1.05176-1.86349,2.12146-2.87492,3.09326l-2.96628,2.99085c-.973,1.01636-2.05846,1.89307-3.08055,2.84839-1.05174.91614-2.03919,1.92212-3.14115,2.76843l-3.25081,2.61585c-1.06056.90844-2.225,1.653-3.34474,2.46813-1.14.78052-2.2305,1.65088-3.40879,2.363-2.34885,1.4364-4.65386,2.96558-7.1121,4.17615l-1.81573.96716-.90749.48487-.93594.415-3.741,1.66932a18.60809,18.60809,0,0,1-1.90035.74792l-1.91875.69422a36.763,36.763,0,0,1-3.86778,1.28149l-3.9181,1.10339-3.98143.80432c-.6649.12671-1.32569.28382-1.994.38807l-2.01571.2373c-1.34529.14-2.6842.36829-4.03546.44605a75.34238,75.34238,0,0,1-8.1304.09851l-2.03761-.07666-1.01917-.04212-1.01709-.12121-4.0714-.47339a85.44861,85.44861,0,0,1-16.048-4.02552l-1.97678-.67627c-.658-.22924-1.29465-.53161-1.94347-.79321l-3.87971-1.6228c-1.278-.58521-2.53058-1.24219-3.79894-1.85816-1.2666-.62133-2.53929-1.231-3.75654-1.96984a128.49364,128.49364,0,0,1-27.51259-20.728,213.33486,213.33486,0,0,1-39.78122-57.17651,205.43181,205.43181,0,0,1-19.46906-72.42249c.032-1.16907-.24569-3.767-.3439-7.46838-.0871-1.847-.187-3.9657-.29758-6.31055-.02929-2.34717-.06143-4.92078-.09579-7.67542-.00629-.68823-.03171-1.38891-.02417-2.098q.03287-1.0622.06668-2.15552.06327-2.18555.12982-4.48388.06749-2.29486.13782-4.68543.18906-2.37543.38437-4.829.18942-2.45141.38364-4.96423c.13589-1.67249.41888-3.34.62081-5.03076q.32859-2.53254.66077-5.09278c.204-1.70837.59934-3.38525.88721-5.083q.46636-2.54042.93167-5.07483c.31757-1.68616.77963-3.33191,1.15613-4.98682q.59083-2.47668,1.17245-4.91467c.43274-1.611.93411-3.18482,1.38614-4.74976q.69027-2.34449,1.35983-4.61865.78375-2.23463,1.53763-4.384.75357-2.14784,1.47173-4.19458c.5045-1.3534,1.07033-2.64185,1.57518-3.90552,1.95883-5.08167,4.07429-9.3219,5.57445-12.65027C65.74764,113.09532,66.95338,110.81981,67.42293,109.79649Z" fill="#fff"/>
          <path d="M184.34821,43.4824l-.36-.09326C183.89824,43.79918,184.47114,43.79124,184.34821,43.4824Z" fill="#fff"/>
          <path d="M34.6199,163.93834l.14182-.693-1.07745,2.51612Z" fill="#fff"/>
          <path d="M108.21314,44.56456c-2.8962,1.4873-4.35027,2.38-5.0065,2.79162-.65293.41834-.48562.3982-.04836.23889C105.18721,46.40684,106.972,45.38511,108.21314,44.56456Z" fill="#fff"/>
          <path d="M224.85109,67.5869c2.082,2.36645,1.46508,1.30615.42461-.26966-1.11838-1.1571-2.15862-2.031-2.8462-2.69934-.70035-.65344-1.10788-1.03357-1.10788-1.03357C222.51524,64.88817,223.66838,66.21666,224.85109,67.5869Z" fill="#fff"/>
          <path d="M219.0742,54.57164l1.01179.3872C218.52935,53.79515,218.51442,53.943,219.0742,54.57164Z" fill="#fff"/>
        </g>
        <g>
          <path d="M87.95513,274.852l.08364-5.89918L87.78783,266.33V261.9608l-.08364-2.84135v-7.6477l-.1673-4.15066V245.354l.08365-1.53v-3.71353c0-1.09283,0-1.74852.08365-2.84135l.08364-.87218-.08364-5.24556v-3.05784l-.08365-5.68061-.08365-1.96709v-4.3713c0-.87218.08365-2.18357.1673-3.05783l.08364-.87426.08365-5.46205.08365-2.84135-.08365-5.24348-.16729-2.40422-.08365-4.36922v-15.0758l-.33419-3.27744L87.37,170.1915a19.67737,19.67737,0,0,1,.25054-3.27847l.16729-1.09179.25094-5.46309-.16729-2.18461-.16729-4.37026v-3.496l-.25054-3.27743a25.12893,25.12893,0,0,1-.08365-3.496l.08365-.87426.16689-5.46205.08365-1.966.16729-5.46309A40.65146,40.65146,0,0,1,89.544,124.5249a2.39757,2.39757,0,0,1,.91971-1.09282l.33459-.43713,1.67254.43713,1.00336-.43713c.25094-.21857.58553.21856,1.00336.65569a10.00994,10.00994,0,0,1,1.00376,3.496,20.18169,20.18169,0,0,1,.1669,3.05887V131.953a37.53635,37.53635,0,0,1-.25054,4.1517l-.1673,2.62278.1673,2.84031v3.496l.16689,5.02492-.08325,1.31139v.65569l-.08364,2.62175-.08365,4.58883.16729,2.18461L95.3977,166.913l-.08365,1.96708.08365,4.8074.16689,3.27743.1673,1.31035v6.33631h.83646l.66878-1.74852.66917-1.52995.83607-2.18357a9.33588,9.33588,0,0,1,.83647-1.966l.41784-.6557,1.50524-2.18565,1.00336-1.09178.75282-1.31139,1.50525-1.52892.83607-.6557c.08364,0,.33458-.21856.41823-.21856l.91972-.43713a1.67923,1.67923,0,0,1,1.75618.21856l1.2543-.21856.75243.21856a1.01217,1.01217,0,0,1,.75282.21857l.58513.43713,1.2543.43713q.50189.32628,1.00336.65465l.33459.43713,1.83983.87427.66878.65569c.16729.21857.08364,0,.25094.21857l1.50524,1.52891a4.7606,4.7606,0,0,1,.66917,1.09283l.75243,1.31139,1.00336,1.31035a10.756,10.756,0,0,1,1.17066,2.6207l.08364.43713,1.2543,3.27848.50189,1.31139c.25094.6557.33458,1.31139.50188,1.74644l1.087,3.71561v.21857a23.135,23.135,0,0,1,.75242,3.71352l.33459,3.27848.33458,2.40422.66878,4.36922.16729.6557a29.47266,29.47266,0,0,1,.41824,3.495l.16729,3.27848.16729,1.09282c.08365,1.09283.08365,1.965.08365,3.2764v2.18565a19.09342,19.09342,0,0,1-.08365,2.18565l-.16729,1.30931.16729,3.05992-.08364,2.18565v.87426L128.7628,231.37l-.08365,5.24557v1.30931c0,.21856-.08364.87426-.08364,1.09282l-.33459,4.58987-.08365.87218a15.98973,15.98973,0,0,1-.33459,3.71561l-.58512,3.2764-.08365.65569c-.08365,1.09283-.25094,2.18565-.41823,3.27848l-.33459,1.53a15.63245,15.63245,0,0,1-1.00336,3.495l-.1673.43713-1.2543,4.15066-.50148,1.96708-1.25431,3.71561-.16729.43713a9.9656,9.9656,0,0,1-1.00376,2.83927l-.66878,1.09283-.91971,1.74852-1.75619,2.18357-1.00336,1.09282-1.92348,1.53-.50188.6557a1.721,1.721,0,0,1-1.58849.65569h-1.2543l-.92012-.21856h-1.2543l-1.087.21856-1.2543-.43713a1.55729,1.55729,0,0,1-.83607-.43713l-.50188-.21856-2.09038-1.53-.33458-.21857a4.735,4.735,0,0,1-.83647-1.09282l-1.4216-2.18357-.33419-.6557a17.59,17.59,0,0,1-.92011-1.74852l-.91972-2.62278-.58513-1.09075-1.0874-2.62278a20.63651,20.63651,0,0,1-.83607-2.84135l-.58553-2.18357-.66878,1.09283v4.36922l-.16729,3.05991v1.09075a23.39129,23.39129,0,0,1-1.087,6.992l-.16729.43713-1.087.87426H90.38009a2.85632,2.85632,0,0,1-1.75579-1.74852A11.02387,11.02387,0,0,1,87.95513,274.852Zm16.0554-85.65259-1.75579,2.18565-1.92348,3.495-.66917,2.18565-1.17066,3.71561-.50148,2.40213-.83647,4.15274-.16729,2.40214-.66878,4.80843v2.6207l-.33458,4.80844-.08365,3.05783.08365,1.09283a41.97265,41.97265,0,0,1,0,4.58779l-.08365.43713.25094,5.24556.33459,2.18357.25094,3.05991a15.47858,15.47858,0,0,1,.08364,1.96709l.08365,1.965.75242,4.3713.58513,2.18357,1.4216,3.93418,2.09077,3.71352.91972,1.53,1.50524,1.96709.83607,1.09282,1.67254,1.30931h1.00336l.75282.21857,1.17066-.6557h.83607l1.83983-.65361,1.00336-.87426,1.58889-2.84135.83607-1.53,1.338-2.6207.75282-1.74852,1.087-3.71561.66917-1.965.66878-4.58987.66917-5.68062.41784-3.05783.25094-5.24556-.08365-2.62071-.08364-1.74852v-5.24348l-.08365-4.80844-.16729-1.52787-.50149-5.46413-.33458-1.965-1.00337-4.3713-.75282-2.40214-1.087-3.71561-.66877-2.18357-1.4216-3.05991-.58553-1.09283-2.174-2.18565-1.67253-.21856a1.79206,1.79206,0,0,1-.91972-.43505l-.25094-.21857-.91972.43505-1.0874-.65361-1.00337-.21857-1.67253,1.09075Z" fill="#fff"/>
          <path d="M138.673,125.4613l2.18131.62256.75535-.31128a5.32369,5.32369,0,0,1,1.8456,2.80152l.25178.62108.08393,4.04663.08393,8.40011v3.1128l-.08393,3.42408.33571,5.60007.75494-2.179.25179-3.42111,1.00672-4.04664c.25179-.93384.41964-1.5564.75535-2.49024l.671-1.5564,1.25851-3.73239.75534-2.48876,1.17459-3.11279a6.74673,6.74673,0,0,1,1.17458-2.17748l2.26524-2.49024.75535-.62256,1.34243-1.24363a1.484,1.484,0,0,1,1.09066-.31128l.58709.31128.9232.30979,1.25851-.62107h.41924c.33571,0,.83927-.31128,1.175,0l1.25851.93235h.16746a4.443,4.443,0,0,1,1.09145,1.24512l.25178.31128,1.84561,3.4226a10.06147,10.06147,0,0,1,1.342,3.11279l1.00713,3.4226.16786.62256a24.18626,24.18626,0,0,1,1.09025,4.66623l.50357,3.73536.50356,3.73239.25178,2.49024.9232.31128.58669-1.86768.50357-2.79855,1.25891-5.603.67142-2.49024c.08392-.30831.251-.61959.33491-.93087l1.25891-3.42408,1.091-2.48875.67062-2.179.67142-1.24364c.16785-.31128.41964-.93384.58749-1.24512l2.43309-3.1128a8.54827,8.54827,0,0,1,.83928-.93235l1.59382-.62256,1.091-.62256h.9224l.83928-.31128a.65982.65982,0,0,1,1.00713,0l1.59382.62256,1.175.93384,1.25811.93235a3.1864,3.1864,0,0,1,.9232,1.24512l.41964.93384,1.25811,3.73388a5.28594,5.28594,0,0,1,.41963,1.5564l.33571,1.24511,1.25811,4.979.58749,2.79855,1.09106,4.6692.16785.93384a36.06789,36.06789,0,0,1,.67062,4.355l.41964,4.04664.25178,4.66623.33571,7.47071v1.86472c0,.62256.08393,1.86768.08393,2.49023l-.16786,6.53688.16786,2.79855v1.24512a49.31306,49.31306,0,0,1,.08393,4.98048v4.04367l.08392,8.09031v8.40455l.08393,4.97752v6.22263l.08393,2.80151v6.84816l-.08393,4.04367v9.33543l-.08393,1.5564v8.09031l.25179,3.42408v5.28879c0,1.24512-.08393,2.80151-.16786,4.04663l-.08393,1.5564.08393,7.46775a41.5677,41.5677,0,0,1-.83927,7.15647l-.16786.62256h-.9224l-1.091-.31128-2.26524.93384c-.33571.31128-.75535,0-1.09106-.31128l-.41963-.31128a45.37879,45.37879,0,0,1-.9224-8.09031v-.31128l-.08393-7.779-.08393-4.66919-.08393-5.60007v-2.80152l.08393-2.80152.16786-7.46775.16785-3.73239-.16785-5.29176c0-.93384-.08393-2.179-.08393-3.1128l.08393-1.86471-.25179-6.2256c0-1.24511-.08392-2.49023,0-4.04367l.08393-1.86768.25178-8.40159.08393-3.11279.16785-6.22263-.08392-1.24512a46.63871,46.63871,0,0,1-.08393-6.84816l.08393-.31128-.33571-4.04367.25178-3.42408-.25178-8.09031-.41964-2.49023-.75534-7.15647-.50357-2.80152-1.426-5.91135-.83928-2.179-1.67774-2.80152H186.5811l-1.09026-.93384-.83927-.31128-1.342.62256-1.67855.62256-1.25811,1.5564L179.03,155.33527l-.92321,3.11279-1.17418,4.97752-.50356,3.11279-1.17419,5.91135-.58749,2.80152-.83927,6.53391-.25178,3.73536-.33571,6.22263-.16786,3.42408.08393,4.97751v2.80152l-.08393,2.49024-.16785,3.73239v6.53687l-.16786,7.46775-.08392,4.6692-.08313,8.40159v3.42111l.08313,8.09328.25178,4.355-.08393,7.779v3.42407l.16786,6.84519v2.179c0,1.24512,0,1.86768-.08393,3.1128l-.16786,1.5564c-.67062,2.48727-1.342,3.73239-1.8456,3.73239l-.75534.31128a1.29378,1.29378,0,0,1-1.00633.31128l-1.51069-.31128-1.00633.62256s-.9232-3.1128-1.42677-5.91135a27.06685,27.06685,0,0,1-.16785-5.29176l.08393-4.66623-.25179-3.73535-.08392-7.779v-3.73536l.08392-7.779v-3.73536l.16786-8.09031.16785-3.10983-.08392-8.40455v-.31128c-.16786-1.86472-.25179-4.04368-.25179-5.91135l.08393-4.66624-.08393-4.66919-.16785-6.84519V192.677l.25178-4.35495.16786-3.42408.08392-4.6692-.33571-4.97751c-.08392-1.24512-.08392-2.49024-.08392-3.73536v-2.79855l-1.17459-6.22559-.33571-3.1128-1.59382-4.66623-.58749-1.86768-1.59422-2.49024-1.09065.31128h-1.00673l-.83927-.31128H155.705l-2.09738.93384-1.00713,2.179-1.92953,2.80152-.83927,1.24511-1.426,4.355-.33571,2.80151-.9232,5.60008-.50316,2.49023-.33571,2.80152-.755,7.779-.58749,7.15647-.08393,4.98048-.41963,7.46775-.08393,4.04663-.08353,3.10984-.08393,3.73535.08393,4.04664-.16785,7.46775v1.5564c0,1.86471.08392,3.73239-.08393,5.28879l-.08393.62256.25178,4.04664v4.355l.08393,7.779.16746,3.73536-.08393,6.53391c0,1.24512,0,1.86768-.08353,3.1128l-.16785,1.55639-.08393,8.71287s-.08393.93384-.25178,2.179c-.58749,4.97751-1.67815,6.84519-2.34917,6.53391h-.08393l-1.92992-.31128h-.33571a.81872.81872,0,0,1-.755-.31128l-.83887-.62256a33.6024,33.6024,0,0,1-.67142-7.46775l-.16786-7.15647-.16785-3.73535-.08393-7.779-.08393-.62256c-.08352-1.5564,0-2.80152,0-4.04664l.16786-5.28879.16785-3.73536.08393-8.09031-.08393-3.42408-.16785-7.46775c0-.93383.08393-2.49023.08393-3.42111l.25178-6.84815.08392-3.7324-.41963-7.15943-.16786-4.04367c0-.93384-.08352-.93384-.08352-1.86768v-4.35792c0-1.24215.08352-2.48727.16745-4.04367l.08393-1.24512.08393-7.15647.08392-4.35792-.25178-6.84519-.08393-3.42407v-6.53391l.08393-3.1128v-7.779l.08393-3.42408v-8.71139a19.39932,19.39932,0,0,1,.58749-5.29027A3.77348,3.77348,0,0,1,138.673,125.4613Z" fill="#fff"/>
          <path d="M251.05522,128.08578l.16929,5.25361V142.094l-.085,1.53261v3.50206c0,.87578-.08424,1.75051-.1693,2.84523l-.1701,1.96945.085,5.47255.3394,2.62629v3.50206a24.914,24.914,0,0,1-.085,2.62628l-.1693,1.53261-.085,5.25256.085,2.84627-.085,4.5947.17011,2.40838v3.28416a25.69107,25.69107,0,0,1-.17011,3.72l-.085.43789.085,4.15784c0,1.09472,0,1.75156-.085,2.84627l-.085,1.09472.34021,4.59574.25434,3.5031.085,4.15785V212.792l-.085,1.5326-.25434,4.59574.08424,1.75155-.1693,5.25257v2.62524l.25435,4.81676-.085,3.06313.25515,4.15994a22.77161,22.77161,0,0,1,.085,2.40629l-.085,1.53261-.25515,5.03362.25515,2.84627-.42445,7.442-.085,5.69046.25435,2.40838-.08424,4.81468a18.97392,18.97392,0,0,1-.17011,2.18944l-.1701,1.75155c-.8505,1.96841-1.44585,2.84418-1.95615,2.84418l-1.95535-.21894-.93556.43789a19.65553,19.65553,0,0,1-2.2105-4.3768,5.79784,5.79784,0,0,1-.08505-1.09472V267.9492l.1701-4.59574-1.01979-.21894-.59535,2.4063-1.701,3.941-.67959,1.74946-1.27576,2.40838a5.77223,5.77223,0,0,1-.93555,1.53261l-1.78525,1.9705-.085.21894a5.02393,5.02393,0,0,1-1.44505,1.74946l-1.10565.87578a1.3886,1.3886,0,0,1-.76545.43789l-1.78525.43789h-1.0206a1.6849,1.6849,0,0,1-1.8703.65683l-.85051.43788-1.87029-.21894c-.1701,0-.51031-.21894-.68041-.21894l-.67959-.219-1.95616-2.40838-2.63575-3.72c-.76545-.43789-1.5301-1.75155-2.12545-3.5031l-.42525-1.09472L215.684,268.825l-1.445-4.37887-1.27575-3.28208a17.99152,17.99152,0,0,1-.51031-1.75155l-.42444-1.5326-.8505-4.15785c-.085-.65683-.25515-1.09472-.3402-1.9705l-.1701-1.31366-.76546-5.25257-.085-.43788c-.085-.65684-.1701-1.31367-.25434-2.18944l-.25515-2.62524a27.2012,27.2012,0,0,1-.085-3.722v-1.09263l-.1701-3.28416a30.342,30.342,0,0,1,.085-4.81468v-.21895l-.085-3.28415c0-.87578-.085-1.75155,0-2.62524l.1701-1.75156v-4.81468l.085-1.5326c0-.87578.085-2.18944.1701-3.06522l.42444-3.501.08505-.87578a19.38166,19.38166,0,0,1,.25515-3.28416l.51031-2.84418.3402-3.06521,1.10565-5.03363.93475-3.722a11.94482,11.94482,0,0,1,.6804-2.18736l.59535-1.31366,1.1899-2.84627c.1701-.43789.3402-.43789.59535-.87578l.59535-1.09263,1.616-3.28312.50949-.87577a3.43867,3.43867,0,0,1,.5103-.65683l1.19071-1.53261.1701-.43684a3.12031,3.12031,0,0,1,1.27494-1.53261l1.53091-1.09472,1.10485-.43789,1.701-.87473a.84994.84994,0,0,1,.67959-.219h1.95616l1.10485-.43788,1.78606.43788a1.595,1.595,0,0,1,.84969.43789l.25515.21895.93555.65579,1.8703,1.5326.3402.43789a2.05945,2.05945,0,0,1,.68041.87578l1.36,2.40734.25515.21894a6.44867,6.44867,0,0,1,1.53091,2.62628l.76464,1.96841.42525.65683a9.29279,9.29279,0,0,1,.93556,1.9705l.25515.87577.50949-.65683.1701-4.15785-.085-3.28311v-.65683c0-.87578-.085-1.75155,0-2.84523l.25515-3.94V164.42l.085-4.37783-.085-3.06417-.085-3.93995v-1.96945l.085-1.53261v-4.59678l.1701-2.40734v-2.18839l-.1701-3.28312v-3.50206l.085-5.91044a17.73736,17.73736,0,0,1,1.10566-5.25257l.085-.43789.76545.21895h1.10485l1.701-.21895h.93475q1.0206,0,1.5309,1.31367A15.851,15.851,0,0,1,251.05522,128.08578ZM225.3773,187.18185l-1.7002,1.53261-.93555,1.75155-1.36081,2.40838-.50949,1.96841-1.44586,4.37888-.42525,1.96841-.6804,4.15993-.3402,2.18736-.8497,4.81676-.42525,3.28207-.085,5.4736.085,1.09263a21.18911,21.18911,0,0,1-.085,3.28416v1.09472l.085,2.84419.25515,3.28415a22.79143,22.79143,0,0,1,.085,2.40839l.085.87369.51031,4.59782.33939,2.62524.08505.43789a25.42,25.42,0,0,1,.8505,3.941l.59535,2.18735,1.02061,3.722.59454,2.18944,1.10565,1.53052a5.772,5.772,0,0,1,.93556,1.53261l.3402.65683,1.27495,1.53261c.1701.21894.3402.21894.59535.65683l.5103.87578,1.8703.87577,1.10565.21686.8497.43789h.1701a1.34594,1.34594,0,0,1,1.5309.21894l.59455.219,1.701-1.31158.76546-1.09472,1.445-2.84627c.1701-.21894.3402-.65683.5103-.87578l1.61515-2.40629.8505-1.53261,1.19071-3.722.67959-2.62524.76546-5.03571.5103-2.18735.3402-4.37888.25515-1.96841.33939-5.47359-.16929-2.62524v-3.722l.16929-1.96841-.33939-5.03571-.1701-2.84418-.6804-3.941-.25515-2.62524L240.3413,201.409l-.42444-1.96841L238.8112,193.967l-1.70019-3.93891-1.02061-1.09472-1.70019-1.75155c-.17011-.21894-.42526-.43789-.59536-.65683l-.25515-.4358-1.95535-.87578-1.1907.219-1.1899.43788h-1.0206l-2.12545.43789Z" fill="#fff"/>
        </g>
      </g>
    </g>
  </g>
</svg>
