<svg xmlns="http://www.w3.org/2000/svg" viewBox="0 0 228 237.12">
  <g id="Layer_2" data-name="Layer 2">
    <g id="Layer_1-2" data-name="Layer 1">
      <rect y="114" width="226.48" height="9.12" fill="#e29110"/>
      <circle cx="114" cy="123.12" r="114" fill="#e29110"/>
      <circle cx="114" cy="114" r="114" fill="#ffdb2c"/>
      <g opacity="0.5">
        <ellipse cx="114" cy="57" rx="98.74512" ry="57" fill="#fff"/>
      </g>
      <g>
        <circle cx="114" cy="114" r="97.27979" fill="#ffdb2c"/>
        <path d="M114,18.24A95.76,95.76,0,1,1,18.24,114,95.86844,95.86844,0,0,1,114,18.24m0-3.04A98.8,98.8,0,1,0,212.8,114,98.912,98.912,0,0,0,114,15.2Z" fill="#e29110"/>
      </g>
      <path d="M114,24.32a98.91968,98.91968,0,0,1,98.6909,94.24c.069-1.51193.1091-3.03133.1091-4.56a98.8,98.8,0,0,0-197.6,0c0,1.52867.04008,3.04807.1091,4.56A98.91968,98.91968,0,0,1,114,24.32Z" fill="#e29110"/>
      <g>
        <path d="M43.36572,85.80469H47.5459v21.4331a19.37149,19.37149,0,0,1-.228,3.04h.15186a16.19813,16.19813,0,0,1,14.13672-8.66455c10.10888,0,17.55712,8.36035,17.55712,19.91309,0,11.3247-7.44824,19.91308-17.55712,19.91308A16.09363,16.09363,0,0,1,47.394,132.4707H47.2417a17.76592,17.76592,0,0,1,.228,2.96436l-.07569,5.09228H43.36572Zm4.18018,35.72168c0,11.17236,7.29639,16.03662,13.75683,16.03662,8.28418,0,13.6045-6.99219,13.6045-16.03662,0-9.27246-5.32032-16.03711-13.6045-16.03711C54.84229,105.48926,47.5459,110.35352,47.5459,121.52637Z" fill="#e29110"/>
        <path d="M91.16943,102.52539v6.30811a11.64916,11.64916,0,0,1-.30371,3.11621h.15186c1.97607-5.624,8.36035-10.33643,14.44092-10.33643,7.06836,0,10.94433,3.42041,11.85644,9.88037h.15186c2.12841-5.168,7.75244-9.88037,14.061-9.88037,9.72852,0,12.92041,5.7002,12.92041,14.897v24.01709h-4.25586V117.72607c0-6.76416-1.36816-12.08447-8.89258-12.08447-8.66455,0-13.45263,8.81641-13.45263,16.56885v18.31689H113.667V117.6499c0-6.15625-.91211-12.0083-8.66455-12.0083-8.58838,0-13.75683,8.66455-13.75683,16.56885v18.31689H87.06543v-38.002Z" fill="#e29110"/>
        <path d="M186.70264,140.52734h-4.104v-5.09228a17.76592,17.76592,0,0,1,.228-2.96436h-.15234a16.2825,16.2825,0,0,1-14.21241,8.96875c-10.10888,0-17.55712-8.58838-17.55712-19.91308,0-11.55274,7.44824-19.91309,17.55712-19.91309a15.97812,15.97812,0,0,1,14.06055,8.66455h.15186a19.37149,19.37149,0,0,1-.228-3.04V85.80469h4.25635Zm-31.54151-19.001c0,9.04443,5.32032,16.03662,13.52881,16.03662,6.53613,0,13.83252-4.86426,13.83252-16.03662,0-11.17285-7.29639-16.03711-13.83252-16.03711C160.48145,105.48926,155.16113,112.25391,155.16113,121.52637Z" fill="#e29110"/>
      </g>
    </g>
  </g>
</svg>
