<svg xmlns="http://www.w3.org/2000/svg" viewBox="0 0 228 237.12">
  <g id="Layer_2" data-name="Layer 2">
    <g id="Layer_5" data-name="Layer 5">
      <g>
        <rect y="114" width="226.48" height="9.12" fill="#e29110"/>
        <circle cx="114" cy="123.12" r="114" fill="#e29110"/>
        <circle cx="114" cy="114" r="114" fill="#ffdb2c"/>
        <g opacity="0.5">
          <ellipse cx="114" cy="57" rx="98.74512" ry="57" fill="#fff"/>
        </g>
        <g>
          <circle cx="114.00008" cy="114.00043" r="97.28027" fill="#ffdb2c"/>
          <path d="M114,18.24A95.76,95.76,0,1,1,18.24,114,95.86847,95.86847,0,0,1,114,18.24m0-3.04A98.8,98.8,0,1,0,212.8,114,98.912,98.912,0,0,0,114,15.2Z" fill="#e29110"/>
        </g>
        <path d="M114,24.32a98.91968,98.91968,0,0,1,98.6909,94.24c.069-1.51193.1091-3.03133.1091-4.56a98.8,98.8,0,0,0-197.6,0c0,1.52867.04008,3.04807.1091,4.56A98.91968,98.91968,0,0,1,114,24.32Z" fill="#e29110"/>
        <g>
          <path d="M85.794,101.9643v34.56347H83.00985V104.46039H78.83309V101.9643Z" fill="#e29110"/>
          <path d="M105.56942,101.38813c7.63281,0,12.48145,7.68066,12.48145,17.85839,0,10.27246-4.84864,17.85743-12.48145,17.85743-7.584,0-12.48047-7.585-12.48047-17.85743C93.089,109.06879,97.98544,101.38813,105.56942,101.38813Zm0,33.123c5.85645,0,9.60156-6.24023,9.60156-15.26465,0-8.92968-3.74511-15.26562-9.60156-15.26562s-9.60059,6.33594-9.60059,15.26562C95.96883,128.27094,99.713,134.51117,105.56942,134.51117Z" fill="#e29110"/>
          <path d="M134.94442,101.38813c7.63281,0,12.48145,7.68066,12.48145,17.85839,0,10.27246-4.84864,17.85743-12.48145,17.85743-7.584,0-12.48047-7.585-12.48047-17.85743C122.464,109.06879,127.36044,101.38813,134.94442,101.38813Zm0,33.123c5.85645,0,9.60156-6.24023,9.60156-15.26465,0-8.92968-3.74511-15.26562-9.60156-15.26562s-9.60059,6.33594-9.60059,15.26562C125.34383,128.27094,129.088,134.51117,134.94442,134.51117Z" fill="#e29110"/>
        </g>
      </g>
    </g>
  </g>
</svg>
