<svg xmlns="http://www.w3.org/2000/svg" viewBox="0 0 228 237.12">
  <g id="Layer_2" data-name="Layer 2">
    <g id="Layer_5" data-name="Layer 5">
      <g>
        <rect y="114" width="226.48" height="9.12" fill="#e29110"/>
        <circle cx="114" cy="123.12" r="114" fill="#e29110"/>
        <circle cx="114" cy="114" r="114" fill="#ffdb2c"/>
        <g opacity="0.5">
          <ellipse cx="114" cy="57" rx="98.74512" ry="57" fill="#fff"/>
        </g>
        <g>
          <circle cx="114.00008" cy="114.00006" r="97.28009" fill="#ffdb2c"/>
          <path d="M114,18.24A95.76,95.76,0,1,1,18.24,114,95.86846,95.86846,0,0,1,114,18.24m0-3.04A98.8,98.8,0,1,0,212.8,114,98.912,98.912,0,0,0,114,15.2Z" fill="#e29110"/>
        </g>
        <path d="M114,24.32a98.91968,98.91968,0,0,1,98.6909,94.24c.069-1.51193.1091-3.03133.1091-4.56a98.8,98.8,0,0,0-197.6,0c0,1.52867.04008,3.04807.1091,4.56A98.91968,98.91968,0,0,1,114,24.32Z" fill="#e29110"/>
        <g>
          <path d="M59.794,94.9643v34.563H57.00985V97.46039H52.83309V94.9643Z" fill="#e29110"/>
          <path d="M79.56942,94.38813c7.63281,0,12.48145,7.68066,12.48145,17.85791,0,10.27246-4.84864,17.85742-12.48145,17.85742-7.584,0-12.48047-7.585-12.48047-17.85742C67.089,102.06879,71.98544,94.38813,79.56942,94.38813Zm0,33.123c5.85645,0,9.60156-6.24072,9.60156-15.26513,0-8.9292-3.74511-15.26563-9.60156-15.26563s-9.60059,6.33643-9.60059,15.26563C69.96883,121.27045,73.713,127.51117,79.56942,127.51117Z" fill="#e29110"/>
          <path d="M108.94442,94.38813c7.63281,0,12.48145,7.68066,12.48145,17.85791,0,10.27246-4.84864,17.85742-12.48145,17.85742-7.584,0-12.48047-7.585-12.48047-17.85742C96.464,102.06879,101.36044,94.38813,108.94442,94.38813Zm0,33.123c5.85645,0,9.60156-6.24072,9.60156-15.26513,0-8.9292-3.74511-15.26563-9.60156-15.26563s-9.60059,6.33643-9.60059,15.26563C99.34383,121.27045,103.088,127.51117,108.94442,127.51117Z" fill="#e29110"/>
          <path d="M138.31942,94.38813c7.63281,0,12.48145,7.68066,12.48145,17.85791,0,10.27246-4.84864,17.85742-12.48145,17.85742-7.584,0-12.48047-7.585-12.48047-17.85742C125.839,102.06879,130.73544,94.38813,138.31942,94.38813Zm0,33.123c5.85645,0,9.60156-6.24072,9.60156-15.26513,0-8.9292-3.74511-15.26563-9.60156-15.26563s-9.60059,6.33643-9.60059,15.26563C128.71883,121.27045,132.463,127.51117,138.31942,127.51117Z" fill="#e29110"/>
          <path d="M167.69442,94.38813c7.63281,0,12.48145,7.68066,12.48145,17.85791,0,10.27246-4.84864,17.85742-12.48145,17.85742-7.584,0-12.48047-7.585-12.48047-17.85742C155.214,102.06879,160.11044,94.38813,167.69442,94.38813Zm0,33.123c5.85645,0,9.60156-6.24072,9.60156-15.26513,0-8.9292-3.74511-15.26563-9.60156-15.26563s-9.60059,6.33643-9.60059,15.26563C158.09383,121.27045,161.838,127.51117,167.69442,127.51117Z" fill="#e29110"/>
        </g>
      </g>
    </g>
  </g>
</svg>
