<?xml version="1.0" encoding="utf-8"?>
<!-- Generator: Adobe Illustrator 26.2.0, SVG Export Plug-In . SVG Version: 6.00 Build 0)  -->
<svg version="1.1" id="Layer_1" xmlns="http://www.w3.org/2000/svg" xmlns:xlink="http://www.w3.org/1999/xlink" x="0px" y="0px"
	 viewBox="0 0 228 237.1" style="enable-background:new 0 0 228 237.1;" xml:space="preserve">
<style type="text/css">
	.st0{fill:#E29110;}
	.st1{fill:#FFDB2C;}
	.st2{opacity:0.5;}
	.st3{fill:#FFFFFF;}
	.st4{fill:#D4A100;}
	.st5{font-family:'Lato-Regular';}
	.st6{font-size:60px;}
</style>
<g id="Layer_2_00000122688113300797146180000005808001923715572415_">
	<g id="Layer_5">
		<g>
			<rect y="114" class="st0" width="226.5" height="9.1"/>
			<circle class="st0" cx="114" cy="123.1" r="114"/>
			<circle class="st1" cx="114" cy="114" r="114"/>
			<g class="st2">
				<ellipse class="st3" cx="114" cy="57" rx="98.8" ry="57"/>
			</g>
			<g>
				<circle class="st1" cx="114" cy="114" r="97.3"/>
				<path class="st0" d="M114,18.2c52.9,0,95.8,42.9,95.8,95.8s-42.9,95.8-95.8,95.8S18.2,166.9,18.2,114
					C18.2,61.1,61.1,18.2,114,18.2C114,18.2,114,18.2,114,18.2 M114,15.2c-54.6,0-98.8,44.2-98.8,98.8s44.2,98.8,98.8,98.8
					s98.8-44.2,98.8-98.8c0,0,0,0,0,0l0,0C212.7,59.5,168.5,15.3,114,15.2L114,15.2z"/>
			</g>
			<path class="st0" d="M114,24.3c52.8,0.1,96.2,41.5,98.7,94.2c0.1-1.5,0.1-3,0.1-4.6c0-54.6-44.2-98.8-98.8-98.8
				S15.2,59.4,15.2,114c0,1.5,0,3,0.1,4.6C17.8,65.9,61.2,24.4,114,24.3z"/>
			<text transform="matrix(1 0 0 1 61.8012 136.2531)" class="st4 st5 st6">100</text>
		</g>
	</g>
</g>
</svg>
