<svg xmlns="http://www.w3.org/2000/svg" viewBox="0 0 228 237.12">
  <g id="Layer_2" data-name="Layer 2">
    <g id="Layer_5" data-name="Layer 5">
      <g>
        <rect y="114" width="226.48" height="9.12" fill="#e29110"/>
        <circle cx="114" cy="123.12" r="114" fill="#e29110"/>
        <circle cx="114" cy="114" r="114" fill="#ffdb2c"/>
        <g opacity="0.5">
          <ellipse cx="114" cy="57" rx="98.74512" ry="57" fill="#fff"/>
        </g>
        <g>
          <circle cx="114.00008" cy="114.00043" r="97.28027" fill="#ffdb2c"/>
          <path d="M114,18.24A95.76,95.76,0,1,1,18.24008,114,95.86847,95.86847,0,0,1,114,18.24m0-3.04A98.8,98.8,0,1,0,212.8,114,98.91195,98.91195,0,0,0,114,15.2Z" fill="#e29110"/>
        </g>
        <path d="M114,24.32a98.91968,98.91968,0,0,1,98.6909,94.24c.069-1.51193.1091-3.03133.1091-4.56a98.8,98.8,0,0,0-197.6,0c0,1.52867.04008,3.04807.1091,4.56A98.91968,98.91968,0,0,1,114,24.32Z" fill="#e29110"/>
        <g>
          <path d="M92.59286,107.8852a13.513,13.513,0,0,1,7.77734-2.49707c6.09668,0,10.36914,4.2246,10.36914,10.27343,0,6.96-5.80859,13.00879-14.21,22.37012h15.8418v2.49609H90.961c11.61719-12.81738,16.94531-18.626,16.94531-24.86621a7.2949,7.2949,0,0,0-7.63281-7.68066,12.50212,12.50212,0,0,0-7.68066,2.68848Z" fill="#e29110"/>
          <path d="M129.02548,105.38813c7.63281,0,12.48046,7.68066,12.48046,17.85839,0,10.27246-4.84765,17.85743-12.48046,17.85743-7.585,0-12.48145-7.585-12.48145-17.85743C116.544,113.06879,121.44051,105.38813,129.02548,105.38813Zm0,33.123c5.85644,0,9.60058-6.24023,9.60058-15.26465,0-8.92968-3.74414-15.26562-9.60058-15.26562s-9.60059,6.33594-9.60059,15.26562C119.42489,132.27094,123.169,138.51117,129.02548,138.51117Z" fill="#e29110"/>
        </g>
      </g>
    </g>
  </g>
</svg>
