<svg xmlns="http://www.w3.org/2000/svg" viewBox="0 0 228 237.12">
  <g id="Layer_2" data-name="Layer 2">
    <g id="Layer_5" data-name="Layer 5">
      <g>
        <rect y="114" width="226.48" height="9.12" fill="#e29110"/>
        <circle cx="114" cy="123.12" r="114" fill="#e29110"/>
        <circle cx="114" cy="114" r="114" fill="#ffdb2c"/>
        <g opacity="0.5">
          <ellipse cx="114" cy="57" rx="98.74512" ry="57" fill="#fff"/>
        </g>
        <g>
          <circle cx="114.00008" cy="114.00006" r="97.28009" fill="#ffdb2c"/>
          <path d="M114,18.24A95.76,95.76,0,1,1,18.24008,114,95.86845,95.86845,0,0,1,114,18.24m0-3.04A98.8,98.8,0,1,0,212.8,114,98.91194,98.91194,0,0,0,114,15.2Z" fill="#e29110"/>
        </g>
        <path d="M114,24.32a98.91968,98.91968,0,0,1,98.6909,94.24c.069-1.51193.1091-3.03133.1091-4.56a98.8,98.8,0,0,0-197.6,0c0,1.52867.04008,3.04807.1091,4.56A98.91968,98.91968,0,0,1,114,24.32Z" fill="#e29110"/>
        <g>
          <path d="M78.84188,135.52729l14.35254-32.0669H75.961V100.9643H97.22665l-15.36133,34.563Z" fill="#e29110"/>
          <path d="M99.961,130.91889a12.48914,12.48914,0,0,0,7.9209,2.64013c5.28027,0,9.12012-3.26416,9.12012-8.40088,0-5.13623-4.03223-8.54443-8.97656-8.54443a15.65329,15.65329,0,0,0-7.1045,1.53613l.71973-17.18554h15.9375v2.49609H104.23348l-.52832,11.47315a12.04465,12.04465,0,0,1,4.80078-.81592c6.33594,0,11.377,4.5122,11.377,11.13672s-5.041,10.84912-11.85742,10.84912a14.00777,14.00777,0,0,1-8.06446-2.40039Z" fill="#e29110"/>
          <path d="M135.81747,100.38813c7.63281,0,12.48047,7.68066,12.48047,17.85791,0,10.27246-4.84766,17.85742-12.48047,17.85742-7.585,0-12.48145-7.585-12.48145-17.85742C123.336,108.06879,128.23251,100.38813,135.81747,100.38813Zm0,33.123c5.85644,0,9.60058-6.24072,9.60058-15.26513,0-8.9292-3.74414-15.26563-9.60058-15.26563s-9.60059,6.33643-9.60059,15.26563C126.21688,127.27045,129.961,133.51117,135.81747,133.51117Z" fill="#e29110"/>
        </g>
      </g>
    </g>
  </g>
</svg>
